<svg width="20" height="20" viewBox="0 0 20 20" fill="none" xmlns="http://www.w3.org/2000/svg">
<path d="M14.57 20C14.8356 20.0016 15.0988 19.9502 15.3443 19.8489C15.5898 19.7476 15.8127 19.5984 16 19.41L18.71 16.7C18.8962 16.5127 19.0008 16.2592 19.0008 15.995C19.0008 15.7308 18.8962 15.4774 18.71 15.29L14.71 11.29C14.5226 11.1038 14.2692 10.9992 14.005 10.9992C13.7408 10.9992 13.4873 11.1038 13.3 11.29L11.7 12.88C10.5922 12.5847 9.56628 12.0409 8.69997 11.29C7.95109 10.4223 7.4076 9.39687 7.10997 8.29002L8.69997 6.69002C8.88622 6.50266 8.99076 6.24921 8.99076 5.98502C8.99076 5.72083 8.88622 5.46738 8.69997 5.28002L4.69997 1.28002C4.51261 1.09377 4.25916 0.989227 3.99497 0.989227C3.73079 0.989227 3.47733 1.09377 3.28997 1.28002L0.589972 4.00002C0.401604 4.18726 0.252418 4.41015 0.151119 4.65567C0.0498199 4.90119 -0.00156179 5.16443 -2.76684e-05 5.43002C0.0906953 9.27231 1.62605 12.9393 4.29997 15.7C7.06069 18.3739 10.7277 19.9093 14.57 20ZM3.99997 3.41002L6.58997 6.00002L5.29997 7.29002C5.17779 7.40447 5.0863 7.54776 5.03389 7.70675C4.98147 7.86574 4.96981 8.03535 4.99997 8.20002C5.37374 9.87039 6.16508 11.4187 7.29997 12.7C8.58033 13.8364 10.129 14.6279 11.8 15C11.9621 15.0339 12.1302 15.027 12.289 14.9799C12.4479 14.9327 12.5925 14.8469 12.71 14.73L14 13.41L16.59 16L14.59 18C11.2737 17.9146 8.10948 16.5912 5.71997 14.29C3.41288 11.8995 2.08558 8.73113 1.99997 5.41002L3.99997 3.41002ZM18 9.00002H20C20.0259 7.81102 19.8108 6.62908 19.3677 5.52543C18.9246 4.42177 18.2626 3.41926 17.4217 2.57831C16.5807 1.73736 15.5782 1.07538 14.4746 0.632272C13.3709 0.18916 12.189 -0.0259119 11 1.94353e-05V2.00002C11.9279 1.96792 12.8525 2.12703 13.7163 2.46745C14.5801 2.80788 15.3646 3.32234 16.0211 3.97886C16.6777 4.63538 17.1921 5.41992 17.5325 6.28372C17.873 7.14752 18.0321 8.07211 18 9.00002Z" fill="#991E2D"/>
<path d="M11 6C13.1 6 14 6.9 14 9H16C16 5.78 14.22 4 11 4V6Z" fill="#991E2D"/>
</svg>
