<svg xmlns="http://www.w3.org/2000/svg" width="25.903" height="26.83" viewBox="1777.049 53 25.903 26.83"><path d="m1802.558 77.438-6.386-6.642a10.798 10.798 0 0 0 2.542-6.963c0-5.973-4.86-10.833-10.833-10.833s-10.832 4.86-10.832 10.833 4.86 10.832 10.832 10.832c2.243 0 4.38-.676 6.206-1.96l6.435 6.692c.268.279.63.433 1.018.433a1.415 1.415 0 0 0 1.018-2.392m-14.677-21.612c4.415 0 8.007 3.592 8.007 8.007 0 4.415-3.592 8.006-8.007 8.006-4.415 0-8.006-3.591-8.006-8.006s3.591-8.007 8.006-8.007" fill-rule="evenodd" data-name="Path 26"/></svg>