<svg width="21" height="19" viewBox="0 0 21 19" fill="none" xmlns="http://www.w3.org/2000/svg">
<path d="M9.571 0.612343C9.91474 -0.204115 11.0855 -0.204114 11.4292 0.612346L13.458 5.43123C13.603 5.77543 13.9307 6.01061 14.3068 6.0404L19.5728 6.45748C20.465 6.52814 20.8268 7.62813 20.147 8.2034L16.1349 11.5987C15.8483 11.8412 15.7231 12.2218 15.8107 12.5843L17.0365 17.661C17.2441 18.5211 16.297 19.201 15.5331 18.7401L11.0247 16.0196C10.7026 15.8252 10.2976 15.8252 9.9756 16.0196L5.46711 18.7401C4.70323 19.201 3.75608 18.5211 3.96376 17.661L5.18954 12.5843C5.2771 12.2218 5.15194 11.8412 4.86538 11.5987L0.853184 8.2034C0.173404 7.62813 0.53519 6.52814 1.42741 6.45748L6.69348 6.0404C7.06962 6.01061 7.39728 5.77543 7.54219 5.43123L9.571 0.612343Z" fill="currentColor"/>
</svg>
